<svg width="124" height="25" viewBox="0 0 124 25" fill="none" xmlns="http://www.w3.org/2000/svg">
<path fill-rule="evenodd" clip-rule="evenodd" d="M10.2071 3.76718C10.5206 3.2198 11.0562 2.49561 12.0002 2.49561C12.9441 2.49561 13.4797 3.21981 13.7932 3.76718C14.1216 4.34069 14.4507 5.16254 14.836 6.12481L14.9035 6.29333C15.1429 6.89116 15.2957 7.2694 15.4414 7.54693C15.5763 7.80413 15.6667 7.89667 15.7405 7.95163C15.8142 8.00652 15.9284 8.06637 16.2128 8.12168C16.5198 8.1814 16.9252 8.21899 17.5658 8.27645L17.868 8.30355C18.8165 8.38857 19.6369 8.4621 20.242 8.60513C20.8368 8.74571 21.6255 9.04293 21.9114 9.89431C22.1971 10.745 21.7485 11.4583 21.3597 11.9299C20.964 12.41 20.3547 12.9651 19.6502 13.607L19.0893 14.1181C18.6951 14.4773 18.4466 14.7049 18.2697 14.8966C18.1053 15.0748 18.0522 15.1708 18.0246 15.2416C18.0072 15.286 17.9928 15.3315 17.9814 15.3777C17.9633 15.4516 17.9514 15.5609 17.9833 15.8017C18.0176 16.0606 18.0897 16.3901 18.2051 16.9111L18.2876 17.2837C18.482 18.161 18.6455 18.8989 18.7093 19.4656C18.767 19.9771 18.8018 20.7313 18.3004 21.2905C18.0381 21.583 17.697 21.7938 17.3179 21.8974C16.5923 22.0957 15.9336 21.725 15.5032 21.4439C15.0261 21.1324 14.441 20.6548 13.7455 20.0872L13.699 20.0492C13.2017 19.6433 12.8818 19.3836 12.6196 19.2079C12.3722 19.0422 12.2509 19.0043 12.1713 18.9915C12.0579 18.9734 11.9424 18.9734 11.829 18.9915C11.7494 19.0043 11.6281 19.0422 11.3807 19.2079C11.1185 19.3836 10.7986 19.6433 10.3013 20.0492L10.2547 20.0872C9.55933 20.6548 8.97424 21.1324 8.49715 21.4439C8.06668 21.725 7.40797 22.0957 6.68243 21.8974C6.30329 21.7938 5.96221 21.583 5.69992 21.2905C5.19852 20.7313 5.23335 19.9771 5.29099 19.4656C5.35484 18.8989 5.51833 18.161 5.71271 17.2836L5.79522 16.9111C5.91065 16.3901 5.98276 16.0606 6.01704 15.8017C6.04891 15.5609 6.03704 15.4516 6.01886 15.3777C6.00747 15.3314 5.99307 15.286 5.97575 15.2416C5.94814 15.1708 5.89503 15.0748 5.73059 14.8966C5.55367 14.7049 5.3052 14.4773 4.91102 14.1181L4.35011 13.607C3.64558 12.9651 3.03634 12.41 2.64062 11.9299C2.2518 11.4583 1.80326 10.745 2.08892 9.89431C2.3748 9.04293 3.16352 8.74571 3.75829 8.60513C4.3634 8.4621 5.18386 8.38856 6.13234 8.30355C6.15819 8.30123 6.18415 8.29891 6.21019 8.29657L6.43446 8.27645C7.07507 8.21899 7.48049 8.1814 7.78755 8.12168C8.07193 8.06637 8.18613 8.00652 8.25983 7.95163C8.33364 7.89667 8.42397 7.80413 8.55895 7.54693C8.7046 7.2694 8.85739 6.89116 9.09681 6.29333L9.13503 6.1979C9.14482 6.17345 9.15458 6.14908 9.1643 6.1248C9.54961 5.16254 9.87869 4.34069 10.2071 3.76718Z" fill="white"/>
<path fill-rule="evenodd" clip-rule="evenodd" d="M35.2071 3.76718C35.5206 3.2198 36.0562 2.49561 37.0002 2.49561C37.9441 2.49561 38.4797 3.21981 38.7932 3.76718C39.1216 4.34069 39.4507 5.16254 39.836 6.12481L39.9035 6.29333C40.1429 6.89116 40.2957 7.2694 40.4414 7.54693C40.5763 7.80413 40.6667 7.89667 40.7405 7.95163C40.8142 8.00652 40.9284 8.06637 41.2128 8.12168C41.5198 8.1814 41.9252 8.21899 42.5658 8.27645L42.868 8.30355C43.8165 8.38857 44.6369 8.4621 45.242 8.60513C45.8368 8.74571 46.6255 9.04293 46.9114 9.89431C47.1971 10.745 46.7485 11.4583 46.3597 11.9299C45.964 12.41 45.3547 12.9651 44.6502 13.607L44.0893 14.1181C43.6951 14.4773 43.4466 14.7049 43.2697 14.8966C43.1053 15.0748 43.0522 15.1708 43.0246 15.2416C43.0072 15.286 42.9928 15.3315 42.9814 15.3777C42.9633 15.4516 42.9514 15.5609 42.9833 15.8017C43.0176 16.0606 43.0897 16.3901 43.2051 16.9111L43.2876 17.2837C43.482 18.161 43.6455 18.8989 43.7093 19.4656C43.767 19.9771 43.8018 20.7313 43.3004 21.2905C43.0381 21.583 42.697 21.7938 42.3179 21.8974C41.5923 22.0957 40.9336 21.725 40.5032 21.4439C40.0261 21.1324 39.441 20.6548 38.7455 20.0872L38.699 20.0492C38.2017 19.6433 37.8818 19.3836 37.6196 19.2079C37.3722 19.0422 37.2509 19.0043 37.1713 18.9915C37.0579 18.9734 36.9424 18.9734 36.829 18.9915C36.7494 19.0043 36.6281 19.0422 36.3807 19.2079C36.1185 19.3836 35.7986 19.6433 35.3013 20.0492L35.2547 20.0872C34.5593 20.6548 33.9742 21.1324 33.4971 21.4439C33.0667 21.725 32.408 22.0957 31.6824 21.8974C31.3033 21.7938 30.9622 21.583 30.6999 21.2905C30.1985 20.7313 30.2334 19.9771 30.291 19.4656C30.3548 18.8989 30.5183 18.161 30.7127 17.2836L30.7952 16.9111C30.9106 16.3901 30.9828 16.0606 31.017 15.8017C31.0489 15.5609 31.037 15.4516 31.0189 15.3777C31.0075 15.3314 30.9931 15.286 30.9758 15.2416C30.9481 15.1708 30.895 15.0748 30.7306 14.8966C30.5537 14.7049 30.3052 14.4773 29.911 14.1181L29.3501 13.607C28.6456 12.9651 28.0363 12.41 27.6406 11.9299C27.2518 11.4583 26.8033 10.745 27.0889 9.89431C27.3748 9.04293 28.1635 8.74571 28.7583 8.60513C29.3634 8.4621 30.1839 8.38856 31.1323 8.30355C31.1582 8.30123 31.1841 8.29891 31.2102 8.29657L31.4345 8.27645C32.0751 8.21899 32.4805 8.1814 32.7876 8.12168C33.0719 8.06637 33.1861 8.00652 33.2598 7.95163C33.3336 7.89667 33.424 7.80413 33.5589 7.54693C33.7046 7.2694 33.8574 6.89116 34.0968 6.29333L34.135 6.1979C34.1448 6.17345 34.1546 6.14908 34.1643 6.1248C34.5496 5.16254 34.8787 4.34069 35.2071 3.76718Z" fill="white"/>
<path fill-rule="evenodd" clip-rule="evenodd" d="M60.2071 3.76718C60.5206 3.2198 61.0562 2.49561 62.0002 2.49561C62.9441 2.49561 63.4797 3.21981 63.7932 3.76718C64.1216 4.34069 64.4507 5.16254 64.836 6.12481L64.9035 6.29333C65.1429 6.89116 65.2957 7.2694 65.4414 7.54693C65.5763 7.80413 65.6667 7.89667 65.7405 7.95163C65.8142 8.00652 65.9284 8.06637 66.2128 8.12168C66.5198 8.1814 66.9252 8.21899 67.5658 8.27645L67.868 8.30355C68.8165 8.38857 69.6369 8.4621 70.242 8.60513C70.8368 8.74571 71.6255 9.04293 71.9114 9.89431C72.1971 10.745 71.7485 11.4583 71.3597 11.9299C70.964 12.41 70.3547 12.9651 69.6502 13.607L69.0893 14.1181C68.6951 14.4773 68.4466 14.7049 68.2697 14.8966C68.1053 15.0748 68.0522 15.1708 68.0246 15.2416C68.0072 15.286 67.9928 15.3315 67.9814 15.3777C67.9633 15.4516 67.9514 15.5609 67.9833 15.8017C68.0176 16.0606 68.0897 16.3901 68.2051 16.9111L68.2876 17.2837C68.482 18.161 68.6455 18.8989 68.7093 19.4656C68.767 19.9771 68.8018 20.7313 68.3004 21.2905C68.0381 21.583 67.697 21.7938 67.3179 21.8974C66.5923 22.0957 65.9336 21.725 65.5032 21.4439C65.0261 21.1324 64.441 20.6548 63.7455 20.0872L63.699 20.0492C63.2017 19.6433 62.8818 19.3836 62.6196 19.2079C62.3722 19.0422 62.2509 19.0043 62.1713 18.9915C62.0579 18.9734 61.9424 18.9734 61.829 18.9915C61.7494 19.0043 61.6281 19.0422 61.3807 19.2079C61.1185 19.3836 60.7986 19.6433 60.3013 20.0492L60.2547 20.0872C59.5593 20.6548 58.9742 21.1324 58.4971 21.4439C58.0667 21.725 57.408 22.0957 56.6824 21.8974C56.3033 21.7938 55.9622 21.583 55.6999 21.2905C55.1985 20.7313 55.2334 19.9771 55.291 19.4656C55.3548 18.8989 55.5183 18.161 55.7127 17.2836L55.7952 16.9111C55.9106 16.3901 55.9828 16.0606 56.017 15.8017C56.0489 15.5609 56.037 15.4516 56.0189 15.3777C56.0075 15.3314 55.9931 15.286 55.9758 15.2416C55.9481 15.1708 55.895 15.0748 55.7306 14.8966C55.5537 14.7049 55.3052 14.4773 54.911 14.1181L54.3501 13.607C53.6456 12.9651 53.0363 12.41 52.6406 11.9299C52.2518 11.4583 51.8033 10.745 52.0889 9.89431C52.3748 9.04293 53.1635 8.74571 53.7583 8.60513C54.3634 8.4621 55.1839 8.38856 56.1323 8.30355C56.1582 8.30123 56.1841 8.29891 56.2102 8.29657L56.4345 8.27645C57.0751 8.21899 57.4805 8.1814 57.7876 8.12168C58.0719 8.06637 58.1861 8.00652 58.2598 7.95163C58.3336 7.89667 58.424 7.80413 58.5589 7.54693C58.7046 7.2694 58.8574 6.89116 59.0968 6.29333L59.135 6.1979C59.1448 6.17345 59.1546 6.14908 59.1643 6.1248C59.5496 5.16254 59.8787 4.34069 60.2071 3.76718Z" fill="white"/>
<path fill-rule="evenodd" clip-rule="evenodd" d="M85.2071 3.76718C85.5206 3.2198 86.0562 2.49561 87.0002 2.49561C87.9441 2.49561 88.4797 3.21981 88.7932 3.76718C89.1216 4.34069 89.4507 5.16254 89.836 6.12481L89.9035 6.29333C90.1429 6.89116 90.2957 7.2694 90.4414 7.54693C90.5763 7.80413 90.6667 7.89667 90.7405 7.95163C90.8142 8.00652 90.9284 8.06637 91.2128 8.12168C91.5198 8.1814 91.9252 8.21899 92.5658 8.27645L92.868 8.30355C93.8165 8.38857 94.6369 8.4621 95.242 8.60513C95.8368 8.74571 96.6255 9.04293 96.9114 9.89431C97.1971 10.745 96.7485 11.4583 96.3597 11.9299C95.964 12.41 95.3547 12.9651 94.6502 13.607L94.0893 14.1181C93.6951 14.4773 93.4466 14.7049 93.2697 14.8966C93.1053 15.0748 93.0522 15.1708 93.0246 15.2416C93.0072 15.286 92.9928 15.3315 92.9814 15.3777C92.9633 15.4516 92.9514 15.5609 92.9833 15.8017C93.0176 16.0606 93.0897 16.3901 93.2051 16.9111L93.2876 17.2837C93.482 18.161 93.6455 18.8989 93.7093 19.4656C93.767 19.9771 93.8018 20.7313 93.3004 21.2905C93.0381 21.583 92.697 21.7938 92.3179 21.8974C91.5923 22.0957 90.9336 21.725 90.5032 21.4439C90.0261 21.1324 89.441 20.6548 88.7455 20.0872L88.699 20.0492C88.2017 19.6433 87.8818 19.3836 87.6196 19.2079C87.3722 19.0422 87.2509 19.0043 87.1713 18.9915C87.0579 18.9734 86.9424 18.9734 86.829 18.9915C86.7494 19.0043 86.6281 19.0422 86.3807 19.2079C86.1185 19.3836 85.7986 19.6433 85.3013 20.0492L85.2547 20.0872C84.5593 20.6548 83.9742 21.1324 83.4971 21.4439C83.0667 21.725 82.408 22.0957 81.6824 21.8974C81.3033 21.7938 80.9622 21.583 80.6999 21.2905C80.1985 20.7313 80.2334 19.9771 80.291 19.4656C80.3548 18.8989 80.5183 18.161 80.7127 17.2836L80.7952 16.9111C80.9106 16.3901 80.9828 16.0606 81.017 15.8017C81.0489 15.5609 81.037 15.4516 81.0189 15.3777C81.0075 15.3314 80.9931 15.286 80.9758 15.2416C80.9481 15.1708 80.895 15.0748 80.7306 14.8966C80.5537 14.7049 80.3052 14.4773 79.911 14.1181L79.3501 13.607C78.6456 12.9651 78.0363 12.41 77.6406 11.9299C77.2518 11.4583 76.8033 10.745 77.0889 9.89431C77.3748 9.04293 78.1635 8.74571 78.7583 8.60513C79.3634 8.4621 80.1839 8.38856 81.1323 8.30355C81.1582 8.30123 81.1841 8.29891 81.2102 8.29657L81.4345 8.27645C82.0751 8.21899 82.4805 8.1814 82.7876 8.12168C83.0719 8.06637 83.1861 8.00652 83.2598 7.95163C83.3336 7.89667 83.424 7.80413 83.5589 7.54693C83.7046 7.2694 83.8574 6.89116 84.0968 6.29333L84.135 6.1979C84.1448 6.17345 84.1546 6.14908 84.1643 6.1248C84.5496 5.16254 84.8787 4.34069 85.2071 3.76718Z" fill="white"/>
<path fill-rule="evenodd" clip-rule="evenodd" d="M110.207 3.76718C110.521 3.2198 111.056 2.49561 112 2.49561C112.944 2.49561 113.48 3.21981 113.793 3.76718C114.122 4.34069 114.451 5.16254 114.836 6.12481L114.904 6.29333C115.143 6.89116 115.296 7.2694 115.441 7.54693C115.576 7.80413 115.667 7.89667 115.74 7.95163C115.814 8.00652 115.928 8.06637 116.213 8.12168C116.52 8.1814 116.925 8.21899 117.566 8.27645L117.868 8.30355C118.816 8.38857 119.637 8.4621 120.242 8.60513C120.837 8.74571 121.626 9.04293 121.911 9.89431C122.197 10.745 121.749 11.4583 121.36 11.9299C120.964 12.41 120.355 12.9651 119.65 13.607L119.089 14.1181C118.695 14.4773 118.447 14.7049 118.27 14.8966C118.105 15.0748 118.052 15.1708 118.025 15.2416C118.007 15.286 117.993 15.3315 117.981 15.3777C117.963 15.4516 117.951 15.5609 117.983 15.8017C118.018 16.0606 118.09 16.3901 118.205 16.9111L118.288 17.2837C118.482 18.161 118.645 18.8989 118.709 19.4656C118.767 19.9771 118.802 20.7313 118.3 21.2905C118.038 21.583 117.697 21.7938 117.318 21.8974C116.592 22.0957 115.934 21.725 115.503 21.4439C115.026 21.1324 114.441 20.6548 113.746 20.0872L113.699 20.0492C113.202 19.6433 112.882 19.3836 112.62 19.2079C112.372 19.0422 112.251 19.0043 112.171 18.9915C112.058 18.9734 111.942 18.9734 111.829 18.9915C111.749 19.0043 111.628 19.0422 111.381 19.2079C111.119 19.3836 110.799 19.6433 110.301 20.0492L110.255 20.0872C109.559 20.6548 108.974 21.1324 108.497 21.4439C108.067 21.725 107.408 22.0957 106.682 21.8974C106.303 21.7938 105.962 21.583 105.7 21.2905C105.199 20.7313 105.233 19.9771 105.291 19.4656C105.355 18.8989 105.518 18.161 105.713 17.2836L105.795 16.9111C105.911 16.3901 105.983 16.0606 106.017 15.8017C106.049 15.5609 106.037 15.4516 106.019 15.3777C106.007 15.3314 105.993 15.286 105.976 15.2416C105.948 15.1708 105.895 15.0748 105.731 14.8966C105.554 14.7049 105.305 14.4773 104.911 14.1181L104.35 13.607C103.646 12.9651 103.036 12.41 102.641 11.9299C102.252 11.4583 101.803 10.745 102.089 9.89431C102.375 9.04293 103.164 8.74571 103.758 8.60513C104.363 8.4621 105.184 8.38856 106.132 8.30355C106.158 8.30123 106.184 8.29891 106.21 8.29657L106.434 8.27645C107.075 8.21899 107.48 8.1814 107.788 8.12168C108.072 8.06637 108.186 8.00652 108.26 7.95163C108.334 7.89667 108.424 7.80413 108.559 7.54693C108.705 7.2694 108.857 6.89116 109.097 6.29333L109.135 6.1979C109.145 6.17345 109.155 6.14908 109.164 6.1248C109.55 5.16254 109.879 4.34069 110.207 3.76718Z" fill="#7B7B7B"/>
</svg>
